# xmcd
#
# Track frame offsets:
#	151
#	20372
#	38281
#	60561
#	73115
#	97169
#	113893
#	127984
#	146049
#	165452
#	182121
#	197229
#	215556
#	237249
#	255207
#	272210
#	293248
#	309489
#	324985
#	341832
#
# Disc length: 4786 seconds
#
# Revision: 0
# Processed by: cddbd v1.4PL0 Copyright (c) Steve Scherf et al.
# Submitted via: audiograbber 1.81.02
#
DISCID=2912b014
DTITLE=MTV - EXCLUSIVE HITS
DYEAR=2002
DGENRE=VOL.4
TTITLE0=Red hot chilli peppers - Can`t stop
TTITLE1=Christina aguiler - Beautiful
TTITLE2=Pink - Famili portrait
TTITLE3=Las Ketchup - Kusha las payas
TTITLE4=Eminem - Lose yourself
TTITLE5=Girls aloud - Sound of the underground
TTITLE6=Guano Apes - You can`t stop me
TTITLE7=Darren Hays - Crush (1980 me)
TTITLE8=Melanie C - Here it comes again
TTITLE9=Moloco Familiar feelings - Трек 10
TTITLE10=Pan`jjaby mc - Mundian to bach ke
TTITLE11=Cerrone - Hysteria
TTITLE12=Justin Timberlake - Cry Me A River
TTITLE13=Paul Oakenfold - James Bond theme
TTITLE14=Scooter - Weekend
TTITLE15=LL Cool J - Paradise
TTITLE16=IIO - At the end
TTITLE17=Holly Valance - Naughty Girl
TTITLE18=Shakira - The One
TTITLE19=BomFanck MC's - Back to back
EXTD=
EXTT0=
EXTT1=
EXTT2=
EXTT3=
EXTT4=
EXTT5=
EXTT6=
EXTT7=
EXTT8=
EXTT9=
EXTT10=
EXTT11=
EXTT12=
EXTT13=
EXTT14=
EXTT15=
EXTT16=
EXTT17=
EXTT18=
EXTT19=
PLAYORDER=
